<svg width="1584" height="396" viewBox="0 0 1584 396" fill="none" xmlns="http://www.w3.org/2000/svg">
<rect width="1584" height="396" fill="#F5F5F5"/>
<g id="Awesome banner" clip-path="url(#clip0_0_1)">
<rect width="1584" height="396" fill="url(#paint0_linear_0_1)"/>
<ellipse id="Ellipse 2" cx="323" cy="64" rx="285" ry="288" fill="url(#paint1_linear_0_1)" fill-opacity="0.1"/>
<g id="copyright">
<path d="M75.95 334.52L72.30 334.52L72.30 311.16L77.20 311.16L83.70 330.04Q83.60 329.02 83.50 327.62Q83.41 326.23 83.33 324.79Q83.25 323.35 83.25 322.23L83.25 311.16L86.90 311.16L86.90 334.52L82 334.52L75.57 315.64Q75.63 316.57 75.73 317.88Q75.82 319.19 75.89 320.57Q75.95 321.94 75.95 323.10L75.95 334.52M98.80 334.84Q96.46 334.84 94.67 333.96Q92.88 333.08 91.89 331.53Q90.90 329.98 90.90 327.93Q90.90 325.78 92.13 324.18Q93.36 322.58 95.34 322.17L95.34 322.10Q93.65 321.75 92.61 320.38Q91.57 319 91.57 317.11Q91.57 315.26 92.48 313.85Q93.39 312.44 95.02 311.64Q96.66 310.84 98.80 310.84Q100.94 310.84 102.59 311.64Q104.24 312.44 105.15 313.85Q106.06 315.26 106.06 317.11Q106.06 319 105.01 320.38Q103.95 321.75 102.26 322.10L102.26 322.17Q104.24 322.58 105.47 324.18Q106.70 325.78 106.70 327.93Q106.70 329.98 105.71 331.53Q104.72 333.08 102.93 333.96Q101.14 334.84 98.80 334.84M98.80 320.73Q100.30 320.73 101.23 319.82Q102.16 318.90 102.16 317.46Q102.16 315.99 101.23 315.08Q100.30 314.17 98.80 314.17Q97.30 314.17 96.37 315.08Q95.44 315.99 95.44 317.46Q95.44 318.90 96.37 319.82Q97.30 320.73 98.80 320.73M98.80 331.45Q100.56 331.45 101.68 330.42Q102.80 329.40 102.80 327.74Q102.80 326.04 101.68 325Q100.56 323.96 98.80 323.96Q97.04 323.96 95.92 325Q94.80 326.04 94.80 327.74Q94.80 329.40 95.92 330.42Q97.04 331.45 98.80 331.45M114.35 334.52L110.70 334.52L110.70 311.16L115.60 311.16L122.10 330.04Q122 329.02 121.90 327.62Q121.81 326.23 121.73 324.79Q121.65 323.35 121.65 322.23L121.65 311.16L125.30 311.16L125.30 334.52L120.40 334.52L113.97 315.64Q114.03 316.57 114.13 317.88Q114.22 319.19 114.29 320.57Q114.35 321.94 114.35 323.10" fill="white" fill-opacity="0.9"/>
<path d="M161.48 325.24L151.24 325.24L151.24 322.68L161.48 322.68" fill="white" fill-opacity="0.9"/>
<path d="M195.02 334.84Q191.82 334.84 189.96 333.05Q188.11 331.26 188.11 328.12L188.11 317.56Q188.11 314.42 189.96 312.63Q191.82 310.84 195.02 310.84Q198.15 310.84 200.01 312.65Q201.87 314.46 201.87 317.56L198.99 317.56Q198.99 315.58 197.95 314.50Q196.91 313.43 195.02 313.43Q193.13 313.43 192.06 314.50Q190.99 315.58 190.99 317.56L190.99 328.12Q190.99 330.10 192.06 331.18Q193.13 332.25 195.02 332.25Q196.91 332.25 197.95 331.18Q198.99 330.10 198.99 328.12L201.87 328.12Q201.87 331.22 200.01 333.03Q198.15 334.84 195.02 334.84" fill="white" fill-opacity="0.9"/>
<path d="M213.96 334.84Q210.83 334.84 209 333.02Q207.18 331.19 207.18 327.80L207.18 317.88Q207.18 314.49 209 312.66Q210.83 310.84 213.96 310.84Q217.10 310.84 218.92 312.66Q220.75 314.49 220.75 317.85L220.75 327.80Q220.75 331.19 218.92 333.02Q217.10 334.84 213.96 334.84M213.96 332.25Q215.85 332.25 216.86 331.18Q217.87 330.10 217.87 328.12L217.87 317.56Q217.87 315.58 216.86 314.50Q215.85 313.43 213.96 313.43Q212.11 313.43 211.08 314.50Q210.06 315.58 210.06 317.56L210.06 328.12Q210.06 330.10 211.08 331.18Q212.11 332.25 213.96 332.25" fill="white" fill-opacity="0.9"/>
<path d="M228.65 334.52L225.87 334.52L225.87 311.16L230.12 311.16L233.10 321.27L236.20 311.16L240.46 311.16L240.46 334.52L237.67 334.52L237.67 323.48Q237.67 321.91 237.72 319.88Q237.77 317.85 237.87 315.77Q237.96 313.69 238.09 312.02L234.31 324.09L231.82 324.09L228.20 312.31Q228.46 314.68 228.55 317.50Q228.65 320.31 228.65 323.48" fill="white" fill-opacity="0.9"/>
<path d="M247.85 334.52L245.07 334.52L245.07 311.16L249.32 311.16L252.30 321.27L255.40 311.16L259.66 311.16L259.66 334.52L256.87 334.52L256.87 323.48Q256.87 321.91 256.92 319.88Q256.97 317.85 257.07 315.77Q257.16 313.69 257.29 312.02L253.51 324.09L251.02 324.09L247.40 312.31Q247.66 314.68 247.75 317.50Q247.85 320.31 247.85 323.48" fill="white" fill-opacity="0.9"/>
<path d="M271.56 334.84Q268.30 334.84 266.57 333.03Q264.84 331.22 264.84 328.12L264.84 311.16L267.72 311.16L267.72 328.12Q267.72 330.04 268.67 331.16Q269.61 332.28 271.56 332.28Q273.48 332.28 274.44 331.16Q275.40 330.04 275.40 328.12L275.40 311.16L278.28 311.16L278.28 328.12Q278.28 331.26 276.57 333.05Q274.86 334.84 271.56 334.84" fill="white" fill-opacity="0.9"/>
<path d="M286.83 334.52L284.04 334.52L284.04 311.16L287.88 311.16L295.02 331.16Q294.95 330.36 294.87 329.19Q294.79 328.02 294.75 326.73Q294.70 325.43 294.70 324.28L294.70 311.16L297.48 311.16L297.48 334.52L293.64 334.52L286.54 314.52Q286.60 315.29 286.67 316.46Q286.73 317.62 286.78 318.92Q286.83 320.22 286.83 321.40" fill="white" fill-opacity="0.9"/>
<path d="M316.20 334.52L303.72 334.52L303.72 331.90L308.49 331.90L308.49 313.78L303.72 313.78L303.72 311.16L316.20 311.16L316.20 313.78L311.43 313.78L311.43 331.90L316.20 331.90" fill="white" fill-opacity="0.9"/>
<path d="M330.60 334.52L327.72 334.52L327.72 313.78L321.32 313.78L321.32 311.16L337 311.16L337 313.78L330.60 313.78" fill="white" fill-opacity="0.9"/>
<path d="M349.80 334.52L346.92 334.52L346.92 325.78L339.88 311.16L342.95 311.16L347.50 320.76Q347.88 321.56 348.11 322.12Q348.33 322.68 348.39 322.94Q348.46 322.68 348.70 322.12Q348.94 321.56 349.32 320.76L353.87 311.16L356.84 311.16L349.80 325.78" fill="white" fill-opacity="0.9"/>
<path d="M382.83 334.52L380.04 334.52L380.04 311.16L383.88 311.16L391.02 331.16Q390.95 330.36 390.87 329.19Q390.79 328.02 390.75 326.73Q390.70 325.43 390.70 324.28L390.70 311.16L393.48 311.16L393.48 334.52L389.64 334.52L382.54 314.52Q382.60 315.29 382.67 316.46Q382.73 317.62 382.78 318.92Q382.83 320.22 382.83 321.40" fill="white" fill-opacity="0.9"/>
<path d="M405.96 334.84Q402.83 334.84 401 333.02Q399.18 331.19 399.18 327.80L399.18 317.88Q399.18 314.49 401 312.66Q402.83 310.84 405.96 310.84Q409.10 310.84 410.92 312.66Q412.75 314.49 412.75 317.85L412.75 327.80Q412.75 331.19 410.92 333.02Q409.10 334.84 405.96 334.84M405.96 332.25Q407.85 332.25 408.86 331.18Q409.87 330.10 409.87 328.12L409.87 317.56Q409.87 315.58 408.86 314.50Q407.85 313.43 405.96 313.43Q404.11 313.43 403.08 314.50Q402.06 315.58 402.06 317.56L402.06 328.12Q402.06 330.10 403.08 331.18Q404.11 332.25 405.96 332.25" fill="white" fill-opacity="0.9"/>
<path d="M424.55 334.52L418.51 334.52L418.51 311.16L424.55 311.16Q426.83 311.16 428.47 312.02Q430.12 312.89 431.03 314.46Q431.95 316.02 431.95 318.17L431.95 327.48Q431.95 329.62 431.03 331.21Q430.12 332.79 428.47 333.66Q426.83 334.52 424.55 334.52M421.39 313.72L421.39 331.96L424.55 331.96Q426.67 331.96 427.87 330.78Q429.07 329.59 429.07 327.48L429.07 318.17Q429.07 316.09 427.87 314.90Q426.67 313.72 424.55 313.72" fill="white" fill-opacity="0.9"/>
<path d="M451.40 334.52L437.96 334.52L437.96 311.16L451.40 311.16L451.40 313.78L440.81 313.78L440.81 321.02L450.28 321.02L450.28 323.58L440.81 323.58L440.81 331.90L451.40 331.90" fill="white" fill-opacity="0.9"/>
<path d="M463.69 334.84Q460.30 334.84 458.28 333.05Q456.27 331.26 456.27 328.12L459.15 328.12Q459.15 330.07 460.39 331.18Q461.64 332.28 463.69 332.28Q465.67 332.28 466.86 331.13Q468.04 329.98 468.04 328.12Q468.04 326.71 467.29 325.67Q466.54 324.63 465.13 324.25L461.58 323.26Q459.37 322.62 458.11 320.97Q456.84 319.32 456.84 317.08Q456.84 315.22 457.67 313.82Q458.51 312.41 460.01 311.62Q461.51 310.84 463.47 310.84Q465.45 310.84 466.97 311.62Q468.49 312.41 469.35 313.80Q470.22 315.19 470.22 317.02L467.34 317.02Q467.34 315.42 466.25 314.41Q465.16 313.40 463.47 313.40Q461.77 313.40 460.71 314.41Q459.66 315.42 459.66 317.02Q459.66 318.30 460.35 319.21Q461.03 320.12 462.28 320.47L465.93 321.50Q468.27 322.14 469.56 323.91Q470.86 325.69 470.86 328.12Q470.86 331.19 468.91 333.02Q466.95 334.84 463.69 334.84" fill="white" fill-opacity="0.9"/>
</g>
<path d="M83.20 197.64L73.12 197.64L73.12 180.12L75.28 180.12L75.28 195.67L83.20 195.67" fill="white" fill-opacity="0.7"/>
<path d="M96.28 197.64L86.92 197.64L86.92 195.67L90.50 195.67L90.50 182.09L86.92 182.09L86.92 180.12L96.28 180.12L96.28 182.09L92.70 182.09L92.70 195.67L96.28 195.67" fill="white" fill-opacity="0.7"/>
<path d="M106.19 197.88Q103.79 197.88 102.40 196.54Q101.01 195.19 101.01 192.84L101.01 184.92Q101.01 182.57 102.40 181.22Q103.79 179.88 106.19 179.88Q108.54 179.88 109.94 181.24Q111.33 182.59 111.33 184.92L109.17 184.92Q109.17 183.43 108.39 182.63Q107.61 181.82 106.19 181.82Q104.78 181.82 103.97 182.63Q103.17 183.43 103.17 184.92L103.17 192.84Q103.17 194.33 103.97 195.13Q104.78 195.94 106.19 195.94Q107.61 195.94 108.39 195.13Q109.17 194.33 109.17 192.84L111.33 192.84Q111.33 195.17 109.94 196.52Q108.54 197.88 106.19 197.88" fill="white" fill-opacity="0.7"/>
<path d="M131.97 201.96L129.81 201.96L129.81 184.44L131.97 184.44L131.97 186.96L131.99 186.96Q132.16 185.66 133.12 184.93Q134.08 184.20 135.57 184.20Q137.56 184.20 138.74 185.51Q139.91 186.82 139.91 189.10L139.91 192.96Q139.91 195.24 138.74 196.56Q137.56 197.88 135.57 197.88Q134.08 197.88 133.12 197.14Q132.16 196.39 131.99 195.12L131.92 195.12L131.97 198.12L131.97 201.96M134.85 196.01Q136.22 196.01 136.98 195.29Q137.75 194.57 137.75 192.96L137.75 189.12Q137.75 187.49 136.98 186.78Q136.22 186.07 134.85 186.07Q133.53 186.07 132.75 186.91Q131.97 187.75 131.97 189.24L131.97 192.84Q131.97 194.33 132.75 195.17Q133.53 196.01 134.85 196.01" fill="white" fill-opacity="0.7"/>
<path d="M149.20 197.83Q146.82 197.83 145.42 196.44Q144.02 195.05 144.02 192.55L144.02 189.53Q144.02 187.01 145.41 185.63Q146.80 184.25 149.20 184.25Q151.60 184.25 152.99 185.63Q154.38 187.01 154.38 189.53L154.38 192.55Q154.38 195.05 152.98 196.44Q151.58 197.83 149.20 197.83M149.20 195.91Q150.62 195.91 151.42 195.12Q152.22 194.33 152.22 192.79L152.22 189.29Q152.22 187.75 151.42 186.96Q150.62 186.17 149.20 186.17Q147.81 186.17 146.99 186.96Q146.18 187.75 146.18 189.29L146.18 192.79Q146.18 194.33 146.99 195.12Q147.81 195.91 149.20 195.91" fill="white" fill-opacity="0.7"/>
<path d="M169.60 197.64L165.52 197.64Q163.77 197.64 162.72 196.62Q161.68 195.60 161.68 193.92L161.68 182.09L157.12 182.09L157.12 180.12L163.84 180.12L163.84 193.92Q163.84 194.74 164.30 195.20Q164.75 195.67 165.52 195.67L169.60 195.67" fill="white" fill-opacity="0.7"/>
<path d="M184.12 197.64L172.84 197.64L172.84 195.67L177.52 195.67L177.52 186.41L173.32 186.41L173.32 184.44L179.68 184.44L179.68 195.67L184.12 195.67L184.12 197.64M178.36 182.06Q177.57 182.06 177.11 181.66Q176.66 181.25 176.66 180.55Q176.66 179.83 177.11 179.41Q177.57 178.99 178.36 178.99Q179.15 178.99 179.61 179.41Q180.06 179.83 180.06 180.55Q180.06 181.25 179.61 181.66Q179.15 182.06 178.36 182.06" fill="white" fill-opacity="0.7"/>
<path d="M192.59 197.88Q190.19 197.88 188.75 196.54Q187.31 195.19 187.31 192.84L187.31 189.24Q187.31 186.89 188.75 185.54Q190.19 184.20 192.59 184.20Q194.87 184.20 196.28 185.42Q197.68 186.65 197.75 188.76L195.59 188.76Q195.52 187.49 194.73 186.80Q193.94 186.12 192.59 186.12Q191.18 186.12 190.32 186.92Q189.47 187.73 189.47 189.22L189.47 192.84Q189.47 194.33 190.32 195.14Q191.18 195.96 192.59 195.96Q193.94 195.96 194.73 195.26Q195.52 194.57 195.59 193.32L197.75 193.32Q197.68 195.43 196.28 196.66Q194.87 197.88 192.59 197.88" fill="white" fill-opacity="0.7"/>
<path d="M212.92 197.64L201.64 197.64L201.64 195.67L206.32 195.67L206.32 186.41L202.12 186.41L202.12 184.44L208.48 184.44L208.48 195.67L212.92 195.67L212.92 197.64M207.16 182.06Q206.37 182.06 205.91 181.66Q205.46 181.25 205.46 180.55Q205.46 179.83 205.91 179.41Q206.37 178.99 207.16 178.99Q207.95 178.99 208.41 179.41Q208.86 179.83 208.86 180.55Q208.86 181.25 208.41 181.66Q207.95 182.06 207.16 182.06" fill="white" fill-opacity="0.7"/>
<path d="M221.20 197.88Q218.87 197.88 217.44 196.48Q216.02 195.07 216.02 192.60L216.02 189.48Q216.02 187.01 217.44 185.60Q218.87 184.20 221.20 184.20Q222.76 184.20 223.92 184.82Q225.09 185.45 225.74 186.58Q226.38 187.70 226.38 189.24L226.38 191.59L218.13 191.59L218.13 192.84Q218.13 194.30 218.97 195.16Q219.81 196.01 221.20 196.01Q222.40 196.01 223.18 195.54Q223.96 195.07 224.13 194.28L226.29 194.28Q226.07 195.94 224.68 196.91Q223.29 197.88 221.20 197.88M218.13 189.24L218.13 189.91L224.27 189.91L224.27 189.24Q224.27 187.68 223.47 186.83Q222.66 185.98 221.20 185.98Q219.74 185.98 218.93 186.83Q218.13 187.68 218.13 189.24" fill="white" fill-opacity="0.7"/>
<path d="M236.13 197.83L235.07 197.83Q232.86 197.83 231.65 196.84Q230.44 195.84 230.44 194.02L232.60 194.02Q232.60 194.93 233.25 195.44Q233.90 195.96 235.07 195.96L236.13 195.96Q237.33 195.96 237.99 195.43Q238.65 194.90 238.65 193.94Q238.65 192.24 237.09 192.02L233.44 191.50Q232.10 191.30 231.35 190.38Q230.61 189.46 230.61 187.94Q230.61 186.22 231.80 185.23Q232.98 184.25 235.07 184.25L236.13 184.25Q238.05 184.25 239.26 185.20Q240.47 186.14 240.57 187.68L238.38 187.68Q238.34 186.98 237.72 186.53Q237.11 186.07 236.13 186.07L235.07 186.07Q233.97 186.07 233.34 186.58Q232.72 187.08 232.72 187.94Q232.72 189.34 233.99 189.53L237.40 190.01Q240.76 190.49 240.76 193.94Q240.76 195.79 239.55 196.81Q238.34 197.83 236.13 197.83" fill="white" fill-opacity="0.7"/>
<path d="M263.25 197.88Q261.21 197.88 260.01 196.74Q258.81 195.60 258.81 193.75Q258.81 192.53 259.36 191.62Q259.91 190.70 260.90 190.19Q261.88 189.67 263.15 189.67L267.23 189.67L267.23 188.64Q267.23 186.07 264.42 186.07Q263.18 186.07 262.41 186.53Q261.64 186.98 261.59 187.80L259.43 187.80Q259.55 186.24 260.88 185.22Q262.22 184.20 264.42 184.20Q266.82 184.20 268.11 185.35Q269.39 186.50 269.39 188.57L269.39 197.64L267.26 197.64L267.26 195.24L267.21 195.24Q267.02 196.46 265.98 197.17Q264.95 197.88 263.25 197.88M263.78 196.06Q265.36 196.06 266.30 195.29Q267.23 194.52 267.23 193.20L267.23 191.35L263.39 191.35Q262.34 191.35 261.68 191.99Q261.02 192.62 261.02 193.68Q261.02 194.78 261.75 195.42Q262.48 196.06 263.78 196.06" fill="white" fill-opacity="0.7"/>
<path d="M280.22 197.64L277.38 197.64L272.90 184.44L275.22 184.44L278.10 193.32Q278.37 194.11 278.56 194.84Q278.75 195.58 278.85 195.98Q278.97 195.58 279.14 194.84Q279.30 194.11 279.54 193.32L282.42 184.44L284.70 184.44" fill="white" fill-opacity="0.7"/>
<path d="M292.05 197.88Q290.01 197.88 288.81 196.74Q287.61 195.60 287.61 193.75Q287.61 192.53 288.16 191.62Q288.71 190.70 289.70 190.19Q290.68 189.67 291.95 189.67L296.03 189.67L296.03 188.64Q296.03 186.07 293.22 186.07Q291.98 186.07 291.21 186.53Q290.44 186.98 290.39 187.80L288.23 187.80Q288.35 186.24 289.68 185.22Q291.02 184.20 293.22 184.20Q295.62 184.20 296.91 185.35Q298.19 186.50 298.19 188.57L298.19 197.64L296.06 197.64L296.06 195.24L296.01 195.24Q295.82 196.46 294.78 197.17Q293.75 197.88 292.05 197.88M292.58 196.06Q294.16 196.06 295.10 195.29Q296.03 194.52 296.03 193.20L296.03 191.35L292.19 191.35Q291.14 191.35 290.48 191.99Q289.82 192.62 289.82 193.68Q289.82 194.78 290.55 195.42Q291.28 196.06 292.58 196.06" fill="white" fill-opacity="0.7"/>
<path d="M313.72 197.64L302.44 197.64L302.44 195.67L307.12 195.67L307.12 186.41L302.92 186.41L302.92 184.44L309.28 184.44L309.28 195.67L313.72 195.67L313.72 197.64M307.96 182.06Q307.17 182.06 306.71 181.66Q306.26 181.25 306.26 180.55Q306.26 179.83 306.71 179.41Q307.17 178.99 307.96 178.99Q308.75 178.99 309.21 179.41Q309.66 179.83 309.66 180.55Q309.66 181.25 309.21 181.66Q308.75 182.06 307.96 182.06" fill="white" fill-opacity="0.7"/>
<path d="M328 197.64L323.92 197.64Q322.17 197.64 321.12 196.62Q320.08 195.60 320.08 193.92L320.08 182.09L315.52 182.09L315.52 180.12L322.24 180.12L322.24 193.92Q322.24 194.74 322.70 195.20Q323.15 195.67 323.92 195.67L328 195.67" fill="white" fill-opacity="0.7"/>
<path d="M335.25 197.88Q333.21 197.88 332.01 196.74Q330.81 195.60 330.81 193.75Q330.81 192.53 331.36 191.62Q331.91 190.70 332.90 190.19Q333.88 189.67 335.15 189.67L339.23 189.67L339.23 188.64Q339.23 186.07 336.42 186.07Q335.18 186.07 334.41 186.53Q333.64 186.98 333.59 187.80L331.43 187.80Q331.55 186.24 332.88 185.22Q334.22 184.20 336.42 184.20Q338.82 184.20 340.11 185.35Q341.39 186.50 341.39 188.57L341.39 197.64L339.26 197.64L339.26 195.24L339.21 195.24Q339.02 196.46 337.98 197.17Q336.95 197.88 335.25 197.88M335.78 196.06Q337.36 196.06 338.30 195.29Q339.23 194.52 339.23 193.20L339.23 191.35L335.39 191.35Q334.34 191.35 333.68 191.99Q333.02 192.62 333.02 193.68Q333.02 194.78 333.75 195.42Q334.48 196.06 335.78 196.06" fill="white" fill-opacity="0.7"/>
<path d="M351.57 197.88Q350.08 197.88 349.12 197.15Q348.16 196.42 347.99 195.12L347.97 195.12L347.97 197.64L345.81 197.64L345.81 180.12L347.97 180.12L347.97 183.96L347.92 186.96L347.94 186.96Q348.14 185.69 349.11 184.94Q350.08 184.20 351.57 184.20Q353.56 184.20 354.74 185.52Q355.91 186.84 355.91 189.12L355.91 192.98Q355.91 195.24 354.74 196.56Q353.56 197.88 351.57 197.88M350.85 196.01Q352.22 196.01 352.98 195.29Q353.75 194.57 353.75 192.96L353.75 189.12Q353.75 187.49 352.98 186.78Q352.22 186.07 350.85 186.07Q349.53 186.07 348.75 186.91Q347.97 187.75 347.97 189.24L347.97 192.84Q347.97 194.33 348.75 195.17Q349.53 196.01 350.85 196.01" fill="white" fill-opacity="0.7"/>
<path d="M371.20 197.64L367.12 197.64Q365.37 197.64 364.32 196.62Q363.28 195.60 363.28 193.92L363.28 182.09L358.72 182.09L358.72 180.12L365.44 180.12L365.44 193.92Q365.44 194.74 365.90 195.20Q366.35 195.67 367.12 195.67L371.20 195.67" fill="white" fill-opacity="0.7"/>
<path d="M379.60 197.88Q377.27 197.88 375.84 196.48Q374.42 195.07 374.42 192.60L374.42 189.48Q374.42 187.01 375.84 185.60Q377.27 184.20 379.60 184.20Q381.16 184.20 382.32 184.82Q383.49 185.45 384.14 186.58Q384.78 187.70 384.78 189.24L384.78 191.59L376.53 191.59L376.53 192.84Q376.53 194.30 377.37 195.16Q378.21 196.01 379.60 196.01Q380.80 196.01 381.58 195.54Q382.36 195.07 382.53 194.28L384.69 194.28Q384.47 195.94 383.08 196.91Q381.69 197.88 379.60 197.88M376.53 189.24L376.53 189.91L382.67 189.91L382.67 189.24Q382.67 187.68 381.87 186.83Q381.06 185.98 379.60 185.98Q378.14 185.98 377.33 186.83Q376.53 187.68 376.53 189.24" fill="white" fill-opacity="0.7"/>
<path d="M408.40 197.83Q406.02 197.83 404.62 196.44Q403.22 195.05 403.22 192.55L403.22 189.53Q403.22 187.01 404.61 185.63Q406 184.25 408.40 184.25Q410.80 184.25 412.19 185.63Q413.58 187.01 413.58 189.53L413.58 192.55Q413.58 195.05 412.18 196.44Q410.78 197.83 408.40 197.83M408.40 195.91Q409.82 195.91 410.62 195.12Q411.42 194.33 411.42 192.79L411.42 189.29Q411.42 187.75 410.62 186.96Q409.82 186.17 408.40 186.17Q407.01 186.17 406.19 186.96Q405.38 187.75 405.38 189.29L405.38 192.79Q405.38 194.33 406.19 195.12Q407.01 195.91 408.40 195.91" fill="white" fill-opacity="0.7"/>
<path d="M419.97 197.64L417.81 197.64L417.81 184.44L419.97 184.44L419.97 186.96L419.99 186.96Q420.16 185.64 421.07 184.92Q421.98 184.20 423.50 184.20Q425.49 184.20 426.66 185.42Q427.84 186.65 427.84 188.76L427.84 197.64L425.68 197.64L425.68 189.14Q425.68 187.63 424.92 186.83Q424.17 186.02 422.87 186.02Q421.53 186.02 420.75 186.86Q419.97 187.70 419.97 189.24" fill="white" fill-opacity="0.7"/>
<path d="M451.14 197.64L446.61 197.64L446.61 180.12L451.14 180.12Q452.85 180.12 454.08 180.77Q455.32 181.42 456 182.59Q456.69 183.77 456.69 185.38L456.69 192.36Q456.69 193.97 456 195.16Q455.32 196.34 454.08 196.99Q452.85 197.64 451.14 197.64M448.77 182.04L448.77 195.72L451.14 195.72Q452.73 195.72 453.63 194.83Q454.53 193.94 454.53 192.36L454.53 185.38Q454.53 183.82 453.63 182.93Q452.73 182.04 451.14 182.04" fill="white" fill-opacity="0.7"/>
<path d="M472.12 197.64L460.84 197.64L460.84 195.67L465.52 195.67L465.52 186.41L461.32 186.41L461.32 184.44L467.68 184.44L467.68 195.67L472.12 195.67L472.12 197.64M466.36 182.06Q465.57 182.06 465.11 181.66Q464.66 181.25 464.66 180.55Q464.66 179.83 465.11 179.41Q465.57 178.99 466.36 178.99Q467.15 178.99 467.61 179.41Q468.06 179.83 468.06 180.55Q468.06 181.25 467.61 181.66Q467.15 182.06 466.36 182.06" fill="white" fill-opacity="0.7"/>
<path d="M480.76 201.96L477.06 201.96L477.06 199.99L480.78 199.99Q481.91 199.99 482.56 199.36Q483.21 198.72 483.21 197.64L483.21 196.44L483.26 194.28L483.18 194.28Q482.99 195.46 482.06 196.09Q481.12 196.73 479.70 196.73Q477.66 196.73 476.49 195.43Q475.31 194.14 475.31 191.88L475.31 189.10Q475.31 186.84 476.49 185.52Q477.66 184.20 479.70 184.20Q481.12 184.20 482.06 184.87Q482.99 185.54 483.18 186.72L483.23 186.72L483.23 184.44L485.37 184.44L485.37 197.64Q485.37 199.63 484.13 200.80Q482.90 201.96 480.76 201.96M480.35 194.93Q481.70 194.93 482.46 194.09Q483.23 193.25 483.23 191.76L483.23 189.24Q483.23 187.75 482.46 186.91Q481.70 186.07 480.35 186.07Q478.98 186.07 478.23 186.86Q477.47 187.66 477.47 189L477.47 192Q477.47 193.34 478.23 194.14Q478.98 194.93 480.35 194.93" fill="white" fill-opacity="0.7"/>
<path d="M500.92 197.64L489.64 197.64L489.64 195.67L494.32 195.67L494.32 186.41L490.12 186.41L490.12 184.44L496.48 184.44L496.48 195.67L500.92 195.67L500.92 197.64M495.16 182.06Q494.37 182.06 493.91 181.66Q493.46 181.25 493.46 180.55Q493.46 179.83 493.91 179.41Q494.37 178.99 495.16 178.99Q495.95 178.99 496.41 179.41Q496.86 179.83 496.86 180.55Q496.86 181.25 496.41 181.66Q495.95 182.06 495.16 182.06" fill="white" fill-opacity="0.7"/>
<path d="M515.20 197.64L505.12 197.64L505.12 180.12L507.28 180.12L507.28 195.67L515.20 195.67" fill="white" fill-opacity="0.7"/>
<path d="M523.60 197.83Q521.22 197.83 519.82 196.44Q518.42 195.05 518.42 192.55L518.42 189.53Q518.42 187.01 519.81 185.63Q521.20 184.25 523.60 184.25Q526 184.25 527.39 185.63Q528.78 187.01 528.78 189.53L528.78 192.55Q528.78 195.05 527.38 196.44Q525.98 197.83 523.60 197.83M523.60 195.91Q525.02 195.91 525.82 195.12Q526.62 194.33 526.62 192.79L526.62 189.29Q526.62 187.75 525.82 186.96Q525.02 186.17 523.60 186.17Q522.21 186.17 521.39 186.96Q520.58 187.75 520.58 189.29L520.58 192.79Q520.58 194.33 521.39 195.12Q522.21 195.91 523.60 195.91" fill="white" fill-opacity="0.7"/>
<path d="M538.19 197.88Q535.79 197.88 534.35 196.54Q532.91 195.19 532.91 192.84L532.91 189.24Q532.91 186.89 534.35 185.54Q535.79 184.20 538.19 184.20Q540.47 184.20 541.88 185.42Q543.28 186.65 543.35 188.76L541.19 188.76Q541.12 187.49 540.33 186.80Q539.54 186.12 538.19 186.12Q536.78 186.12 535.92 186.92Q535.07 187.73 535.07 189.22L535.07 192.84Q535.07 194.33 535.92 195.14Q536.78 195.96 538.19 195.96Q539.54 195.96 540.33 195.26Q541.12 194.57 541.19 193.32L543.35 193.32Q543.28 195.43 541.88 196.66Q540.47 197.88 538.19 197.88" fill="white" fill-opacity="0.7"/>
<path d="M549.69 197.64L547.53 197.64L547.53 180.12L549.69 180.12L549.69 189.89L552.21 189.89L555.90 184.44L558.38 184.44L554.13 190.73L558.62 197.64L556.10 197.64L552.26 191.76L549.69 191.76" fill="white" fill-opacity="0.7"/>
<path d="M566.80 197.88Q564.47 197.88 563.04 196.48Q561.62 195.07 561.62 192.60L561.62 189.48Q561.62 187.01 563.04 185.60Q564.47 184.20 566.80 184.20Q568.36 184.20 569.52 184.82Q570.69 185.45 571.34 186.58Q571.98 187.70 571.98 189.24L571.98 191.59L563.73 191.59L563.73 192.84Q563.73 194.30 564.57 195.16Q565.41 196.01 566.80 196.01Q568 196.01 568.78 195.54Q569.56 195.07 569.73 194.28L571.89 194.28Q571.67 195.94 570.28 196.91Q568.89 197.88 566.80 197.88M563.73 189.24L563.73 189.91L569.87 189.91L569.87 189.24Q569.87 187.68 569.07 186.83Q568.26 185.98 566.80 185.98Q565.34 185.98 564.53 186.83Q563.73 187.68 563.73 189.24" fill="white" fill-opacity="0.7"/>
<path d="M578.85 197.64L576.69 197.64L576.69 184.44L578.85 184.44L578.85 186.96L578.90 186.96Q579.06 185.69 579.98 184.94Q580.89 184.20 582.42 184.20Q584.49 184.20 585.60 185.44Q586.72 186.67 586.72 188.95L586.72 190.08L584.56 190.08L584.56 188.95Q584.56 186.07 581.75 186.07Q580.34 186.07 579.59 186.89Q578.85 187.70 578.85 189.24" fill="white" fill-opacity="0.7"/>
<path d="M610.12 197.64L607.96 197.64L607.96 188.21L604.12 188.21L604.12 186.24L607.96 186.24L607.96 183.48Q607.96 181.92 608.94 181.02Q609.93 180.12 611.66 180.12L615.52 180.12L615.52 182.09L611.66 182.09Q610.12 182.09 610.12 183.48L610.12 186.24L615.52 186.24L615.52 188.21L610.12 188.21" fill="white" fill-opacity="0.7"/>
<path d="M624.40 197.83Q622.02 197.83 620.62 196.44Q619.22 195.05 619.22 192.55L619.22 189.53Q619.22 187.01 620.61 185.63Q622 184.25 624.40 184.25Q626.80 184.25 628.19 185.63Q629.58 187.01 629.58 189.53L629.58 192.55Q629.58 195.05 628.18 196.44Q626.78 197.83 624.40 197.83M624.40 195.91Q625.82 195.91 626.62 195.12Q627.42 194.33 627.42 192.79L627.42 189.29Q627.42 187.75 626.62 186.96Q625.82 186.17 624.40 186.17Q623.01 186.17 622.19 186.96Q621.38 187.75 621.38 189.29L621.38 192.79Q621.38 194.33 622.19 195.12Q623.01 195.91 624.40 195.91" fill="white" fill-opacity="0.7"/>
<path d="M636.45 197.64L634.29 197.64L634.29 184.44L636.45 184.44L636.45 186.96L636.50 186.96Q636.66 185.69 637.58 184.94Q638.49 184.20 640.02 184.20Q642.09 184.20 643.20 185.44Q644.32 186.67 644.32 188.95L644.32 190.08L642.16 190.08L642.16 188.95Q642.16 186.07 639.35 186.07Q637.94 186.07 637.19 186.89Q636.45 187.70 636.45 189.24" fill="white" fill-opacity="0.7"/>
<path d="M667.79 197.88Q665.39 197.88 663.95 196.54Q662.51 195.19 662.51 192.84L662.51 189.24Q662.51 186.89 663.95 185.54Q665.39 184.20 667.79 184.20Q670.07 184.20 671.48 185.42Q672.88 186.65 672.95 188.76L670.79 188.76Q670.72 187.49 669.93 186.80Q669.14 186.12 667.79 186.12Q666.38 186.12 665.52 186.92Q664.67 187.73 664.67 189.22L664.67 192.84Q664.67 194.33 665.52 195.14Q666.38 195.96 667.79 195.96Q669.14 195.96 669.93 195.26Q670.72 194.57 670.79 193.32L672.95 193.32Q672.88 195.43 671.48 196.66Q670.07 197.88 667.79 197.88" fill="white" fill-opacity="0.7"/>
<path d="M688.12 197.64L676.84 197.64L676.84 195.67L681.52 195.67L681.52 186.41L677.32 186.41L677.32 184.44L683.68 184.44L683.68 195.67L688.12 195.67L688.12 197.64M682.36 182.06Q681.57 182.06 681.11 181.66Q680.66 181.25 680.66 180.55Q680.66 179.83 681.11 179.41Q681.57 178.99 682.36 178.99Q683.15 178.99 683.61 179.41Q684.06 179.83 684.06 180.55Q684.06 181.25 683.61 181.66Q683.15 182.06 682.36 182.06" fill="white" fill-opacity="0.7"/>
<path d="M701.56 197.64L697.72 197.64Q696.09 197.64 695.10 196.69Q694.12 195.74 694.12 194.16L694.12 186.41L690.33 186.41L690.33 184.44L694.12 184.44L694.12 180.72L696.28 180.72L696.28 184.44L701.68 184.44L701.68 186.41L696.28 186.41L696.28 194.16Q696.28 194.83 696.68 195.25Q697.07 195.67 697.72 195.67L701.56 195.67" fill="white" fill-opacity="0.7"/>
<path d="M716.92 197.64L705.64 197.64L705.64 195.67L710.32 195.67L710.32 186.41L706.12 186.41L706.12 184.44L712.48 184.44L712.48 195.67L716.92 195.67L716.92 197.64M711.16 182.06Q710.37 182.06 709.91 181.66Q709.46 181.25 709.46 180.55Q709.46 179.83 709.91 179.41Q710.37 178.99 711.16 178.99Q711.95 178.99 712.41 179.41Q712.86 179.83 712.86 180.55Q712.86 181.25 712.41 181.66Q711.95 182.06 711.16 182.06" fill="white" fill-opacity="0.7"/>
<path d="M730.24 197.64L720.16 197.64L720.16 195.48L727.55 186.41L720.35 186.41L720.35 184.44L729.98 184.44L729.98 186.60L722.44 195.67L730.24 195.67" fill="white" fill-opacity="0.7"/>
<path d="M739.60 197.88Q737.27 197.88 735.84 196.48Q734.42 195.07 734.42 192.60L734.42 189.48Q734.42 187.01 735.84 185.60Q737.27 184.20 739.60 184.20Q741.16 184.20 742.32 184.82Q743.49 185.45 744.14 186.58Q744.78 187.70 744.78 189.24L744.78 191.59L736.53 191.59L736.53 192.84Q736.53 194.30 737.37 195.16Q738.21 196.01 739.60 196.01Q740.80 196.01 741.58 195.54Q742.36 195.07 742.53 194.28L744.69 194.28Q744.47 195.94 743.08 196.91Q741.69 197.88 739.60 197.88M736.53 189.24L736.53 189.91L742.67 189.91L742.67 189.24Q742.67 187.68 741.87 186.83Q741.06 185.98 739.60 185.98Q738.14 185.98 737.33 186.83Q736.53 187.68 736.53 189.24" fill="white" fill-opacity="0.7"/>
<path d="M751.17 197.64L749.01 197.64L749.01 184.44L751.17 184.44L751.17 186.96L751.19 186.96Q751.36 185.64 752.27 184.92Q753.18 184.20 754.70 184.20Q756.69 184.20 757.86 185.42Q759.04 186.65 759.04 188.76L759.04 197.64L756.88 197.64L756.88 189.14Q756.88 187.63 756.12 186.83Q755.37 186.02 754.07 186.02Q752.73 186.02 751.95 186.86Q751.17 187.70 751.17 189.24" fill="white" fill-opacity="0.7"/>
<path d="M782.03 197.88Q780.06 197.88 778.88 196.56Q777.69 195.24 777.69 192.98L777.69 189.12Q777.69 186.84 778.86 185.52Q780.04 184.20 782.03 184.20Q783.52 184.20 784.49 184.94Q785.46 185.69 785.66 186.96L785.68 186.96L785.63 183.96L785.63 180.12L787.79 180.12L787.79 197.64L785.63 197.64L785.63 195.12L785.61 195.12Q785.44 196.42 784.48 197.15Q783.52 197.88 782.03 197.88M782.75 196.01Q784.10 196.01 784.86 195.17Q785.63 194.33 785.63 192.84L785.63 189.24Q785.63 187.75 784.86 186.91Q784.10 186.07 782.75 186.07Q781.38 186.07 780.62 186.78Q779.85 187.49 779.85 189.12L779.85 192.96Q779.85 194.57 780.62 195.29Q781.38 196.01 782.75 196.01" fill="white" fill-opacity="0.7"/>
<path d="M797.20 197.83Q794.82 197.83 793.42 196.44Q792.02 195.05 792.02 192.55L792.02 189.53Q792.02 187.01 793.41 185.63Q794.80 184.25 797.20 184.25Q799.60 184.25 800.99 185.63Q802.38 187.01 802.38 189.53L802.38 192.55Q802.38 195.05 800.98 196.44Q799.58 197.83 797.20 197.83M797.20 195.91Q798.62 195.91 799.42 195.12Q800.22 194.33 800.22 192.79L800.22 189.29Q800.22 187.75 799.42 186.96Q798.62 186.17 797.20 186.17Q795.81 186.17 794.99 186.96Q794.18 187.75 794.18 189.29L794.18 192.79Q794.18 194.33 794.99 195.12Q795.81 195.91 797.20 195.91" fill="white" fill-opacity="0.7"/>
<path d="M809.68 197.64L807.30 197.64L805.14 184.44L807.02 184.44L808.36 193.75Q808.43 194.28 808.50 194.92Q808.58 195.55 808.60 195.96Q808.65 195.55 808.71 194.92Q808.77 194.28 808.86 193.75L810.52 184.44L812.68 184.44L814.34 193.75Q814.43 194.28 814.52 194.92Q814.60 195.55 814.62 195.96Q814.67 195.55 814.74 194.92Q814.82 194.28 814.89 193.75L816.28 184.44L818.06 184.44L815.80 197.64L813.42 197.64L811.91 188.52Q811.82 187.85 811.73 187.09Q811.65 186.34 811.60 185.93Q811.58 186.34 811.48 187.09Q811.38 187.85 811.26 188.52" fill="white" fill-opacity="0.7"/>
<path d="M823.17 197.64L821.01 197.64L821.01 184.44L823.17 184.44L823.17 186.96L823.19 186.96Q823.36 185.64 824.27 184.92Q825.18 184.20 826.70 184.20Q828.69 184.20 829.86 185.42Q831.04 186.65 831.04 188.76L831.04 197.64L828.88 197.64L828.88 189.14Q828.88 187.63 828.12 186.83Q827.37 186.02 826.07 186.02Q824.73 186.02 823.95 186.86Q823.17 187.70 823.17 189.24" fill="white" fill-opacity="0.7"/>
<path d="M846.40 197.64L842.32 197.64Q840.57 197.64 839.52 196.62Q838.48 195.60 838.48 193.92L838.48 182.09L833.92 182.09L833.92 180.12L840.64 180.12L840.64 193.92Q840.64 194.74 841.10 195.20Q841.55 195.67 842.32 195.67L846.40 195.67" fill="white" fill-opacity="0.7"/>
<path d="M854.80 197.83Q852.42 197.83 851.02 196.44Q849.62 195.05 849.62 192.55L849.62 189.53Q849.62 187.01 851.01 185.63Q852.40 184.25 854.80 184.25Q857.20 184.25 858.59 185.63Q859.98 187.01 859.98 189.53L859.98 192.55Q859.98 195.05 858.58 196.44Q857.18 197.83 854.80 197.83M854.80 195.91Q856.22 195.91 857.02 195.12Q857.82 194.33 857.82 192.79L857.82 189.29Q857.82 187.75 857.02 186.96Q856.22 186.17 854.80 186.17Q853.41 186.17 852.59 186.96Q851.78 187.75 851.78 189.29L851.78 192.79Q851.78 194.33 852.59 195.12Q853.41 195.91 854.80 195.91" fill="white" fill-opacity="0.7"/>
<path d="M868.05 197.88Q866.01 197.88 864.81 196.74Q863.61 195.60 863.61 193.75Q863.61 192.53 864.16 191.62Q864.71 190.70 865.70 190.19Q866.68 189.67 867.95 189.67L872.03 189.67L872.03 188.64Q872.03 186.07 869.22 186.07Q867.98 186.07 867.21 186.53Q866.44 186.98 866.39 187.80L864.23 187.80Q864.35 186.24 865.68 185.22Q867.02 184.20 869.22 184.20Q871.62 184.20 872.91 185.35Q874.19 186.50 874.19 188.57L874.19 197.64L872.06 197.64L872.06 195.24L872.01 195.24Q871.82 196.46 870.78 197.17Q869.75 197.88 868.05 197.88M868.58 196.06Q870.16 196.06 871.10 195.29Q872.03 194.52 872.03 193.20L872.03 191.35L868.19 191.35Q867.14 191.35 866.48 191.99Q865.82 192.62 865.82 193.68Q865.82 194.78 866.55 195.42Q867.28 196.06 868.58 196.06" fill="white" fill-opacity="0.7"/>
<path d="M882.83 197.88Q880.86 197.88 879.68 196.56Q878.49 195.24 878.49 192.98L878.49 189.12Q878.49 186.84 879.66 185.52Q880.84 184.20 882.83 184.20Q884.32 184.20 885.29 184.94Q886.26 185.69 886.46 186.96L886.48 186.96L886.43 183.96L886.43 180.12L888.59 180.12L888.59 197.64L886.43 197.64L886.43 195.12L886.41 195.12Q886.24 196.42 885.28 197.15Q884.32 197.88 882.83 197.88M883.55 196.01Q884.90 196.01 885.66 195.17Q886.43 194.33 886.43 192.84L886.43 189.24Q886.43 187.75 885.66 186.91Q884.90 186.07 883.55 186.07Q882.18 186.07 881.42 186.78Q880.65 187.49 880.65 189.12L880.65 192.96Q880.65 194.57 881.42 195.29Q882.18 196.01 883.55 196.01" fill="white" fill-opacity="0.7"/>
<path d="M898 197.88Q897.11 197.88 896.57 197.35Q896.03 196.82 896.03 195.98Q896.03 195.10 896.57 194.54Q897.11 193.99 898 193.99Q898.89 193.99 899.43 194.54Q899.97 195.10 899.97 195.98Q899.97 196.82 899.43 197.35Q898.89 197.88 898 197.88" fill="white" fill-opacity="0.7"/>
<path d="M76.11 136.06L66.42 136.06L84.56 65.98L97.14 65.98L115.18 136.06L105.49 136.06L101.07 117.82L80.53 117.82L76.11 136.06M87.54 88.92L82.45 109.95L99.15 109.95L94.16 89.02Q92.72 83.26 91.86 79.23Q90.99 75.20 90.80 73.76Q90.61 75.20 89.74 79.23Q88.88 83.26 87.54 88.92M137.55 136.06L128.05 136.06L128.05 65.98L150.80 65.98Q157.52 65.98 162.42 68.57Q167.31 71.16 170 75.82Q172.69 80.48 172.69 86.91Q172.69 93.24 170 97.90Q167.31 102.56 162.37 105.15Q157.42 107.74 150.80 107.74L137.55 107.74L137.55 136.06M137.55 74.43L137.55 99.29L150.80 99.29Q156.37 99.29 159.63 95.88Q162.90 92.48 162.90 86.91Q162.90 81.24 159.63 77.84Q156.37 74.43 150.80 74.43L137.55 74.43M225.10 136.06L186.90 136.06L186.90 127.42L201.20 127.42L201.20 74.62L186.90 74.62L186.90 65.98L225.10 65.98L225.10 74.62L210.80 74.62L210.80 127.42L225.10 127.42L225.10 136.06M263.98 137.02Q253.62 137.02 247.47 131.60Q241.33 126.17 241.33 116.67L250.83 116.67Q250.83 122.24 254.38 125.40Q257.94 128.57 263.98 128.57Q269.74 128.57 273.15 125.36Q276.56 122.14 276.56 116.76Q276.56 112.73 274.35 109.71Q272.14 106.68 268.11 105.63L257.74 102.84Q250.93 100.92 246.94 95.88Q242.96 90.84 242.96 83.93Q242.96 78.27 245.50 74Q248.05 69.72 252.66 67.37Q257.26 65.02 263.31 65.02Q269.46 65.02 274.11 67.37Q278.77 69.72 281.36 73.95Q283.95 78.17 283.95 83.74L274.54 83.74Q274.54 79.13 271.42 76.25Q268.30 73.37 263.31 73.37Q258.32 73.37 255.30 76.25Q252.27 79.13 252.27 83.74Q252.27 87.48 254.29 90.03Q256.30 92.57 259.95 93.63L270.61 96.51Q277.81 98.43 281.84 103.85Q285.87 109.28 285.87 116.76Q285.87 122.91 283.18 127.47Q280.50 132.03 275.55 134.52Q270.61 137.02 263.98 137.02M342.51 136.06L301.71 136.06L301.71 65.98L342.51 65.98L342.51 74.52L311.12 74.52L311.12 95.36L339.15 95.36L339.15 103.61L311.12 103.61L311.12 127.52L342.51 127.52L342.51 136.06M383.60 136.06L374.10 136.06L374.10 74.62L355.09 74.62L355.09 65.98L402.51 65.98L402.51 74.62L383.60 74.62L383.60 136.06M436.40 137.02Q426.51 137.02 421.18 131.55Q415.86 126.08 415.86 116.67L415.86 65.98L425.36 65.98L425.36 116.67Q425.36 122.24 428.10 125.40Q430.83 128.57 436.40 128.57Q441.87 128.57 444.70 125.40Q447.54 122.24 447.54 116.67L447.54 65.98L457.04 65.98L457.04 116.67Q457.04 126.17 451.71 131.60Q446.38 137.02 436.40 137.02M551.98 137.02Q542.29 137.02 536.58 131.60Q530.86 126.17 530.86 116.67L530.86 85.28Q530.86 75.87 536.58 70.44Q542.29 65.02 551.98 65.02Q561.58 65.02 567.30 70.49Q573.01 75.96 573.01 85.28L563.50 85.28Q563.50 79.61 560.43 76.54Q557.36 73.47 551.98 73.47Q546.51 73.47 543.44 76.54Q540.37 79.61 540.37 85.28L540.37 116.67Q540.37 122.43 543.44 125.50Q546.51 128.57 551.98 128.57Q557.36 128.57 560.43 125.50Q563.50 122.43 563.50 116.67L563.50 107.55L549.87 107.55L549.87 99.10L573.01 99.10L573.01 116.67Q573.01 126.08 567.30 131.55Q561.58 137.02 551.98 137.02M609.20 137.02Q599.60 137.02 594.03 131.45Q588.46 125.88 588.46 115.71L588.46 86.24Q588.46 76.16 594.03 70.59Q599.60 65.02 609.20 65.02Q618.80 65.02 624.37 70.54Q629.94 76.06 629.94 86.24L629.94 115.71Q629.94 125.88 624.37 131.45Q618.80 137.02 609.20 137.02M609.20 128.57Q614.58 128.57 617.50 125.50Q620.43 122.43 620.43 116.67L620.43 85.28Q620.43 79.61 617.55 76.54Q614.67 73.47 609.20 73.47Q603.73 73.47 600.85 76.54Q597.97 79.61 597.97 85.28L597.97 116.67Q597.97 122.43 600.90 125.50Q603.82 128.57 609.20 128.57M673.14 136.06L660.37 136.06L642.42 65.98L652.21 65.98L663.82 113.21Q664.98 117.72 665.79 121.90Q666.61 126.08 666.99 128.28Q667.28 126.08 668.19 121.85Q669.10 117.63 670.16 113.12L681.39 65.98L691.18 65.98L673.14 136.06M806.19 136.06L765.49 136.06L765.49 65.98L774.99 65.98L774.99 127.42L806.19 127.42L806.19 136.06M858.70 136.06L820.50 136.06L820.50 127.42L834.80 127.42L834.80 74.62L820.50 74.62L820.50 65.98L858.70 65.98L858.70 74.62L844.40 74.62L844.40 127.42L858.70 127.42L858.70 136.06M897.97 137.02Q888.27 137.02 882.56 131.60Q876.85 126.17 876.85 116.67L876.85 85.28Q876.85 75.87 882.56 70.44Q888.27 65.02 897.97 65.02Q907.57 65.02 913.28 70.49Q918.99 75.96 918.99 85.28L909.49 85.28Q909.49 79.61 906.42 76.54Q903.34 73.47 897.97 73.47Q892.50 73.47 889.42 76.54Q886.35 79.61 886.35 85.28L886.35 116.67Q886.35 122.43 889.42 125.50Q892.50 128.57 897.97 128.57Q903.34 128.57 906.42 125.50Q909.49 122.43 909.49 116.67L918.99 116.67Q918.99 126.08 913.28 131.55Q907.57 137.02 897.97 137.02M973.90 136.06L935.70 136.06L935.70 127.42LNaN 127.42LNaN 74.62L935.70 74.62L935.70 65.98L973.90 65.98L973.90 74.62L959.60 74.62L959.60 127.42L973.90 127.42L973.90 136.06M1000.78 136.06L991.86 136.06L991.86 65.98L1004.14 65.98L1025.07 125.12Q1024.78 122.62 1024.54 118.92Q1024.30 115.23 1024.16 111.24Q1024.02 107.26 1024.02 103.71L1024.02 65.98L1033.04 65.98L1033.04 136.06L1020.66 136.06L999.92 76.92Q1000.11 79.42 1000.30 83.02Q1000.50 86.62 1000.64 90.56Q1000.78 94.49 1000.78 97.95L1000.78 136.06M1068.46 136.06L1049.65 136.06L1049.65 65.98L1068.46 65.98Q1075.28 65.98 1080.32 68.62Q1085.36 71.26 1088.14 76.01Q1090.93 80.76 1090.93 87.20L1090.93 114.75Q1090.93 121.18 1088.14 125.98Q1085.36 130.78 1080.32 133.42Q1075.28 136.06 1068.46 136.06M1059.15 74.43L1059.15 127.61L1068.46 127.61Q1074.51 127.61 1077.97 124.16Q1081.42 120.70 1081.42 114.75L1081.42 87.20Q1081.42 81.24 1077.97 77.84Q1074.51 74.43 1068.46 74.43L1059.15 74.43M1146.70 136.06L1108.50 136.06L1108.50 127.42L1122.80 127.42L1122.80 74.62L1108.50 74.62L1108.50 65.98L1146.70 65.98L1146.70 74.62L1132.40 74.62L1132.40 127.42L1146.70 127.42L1146.70 136.06M1170.51 136.06L1160.82 136.06L1178.96 65.98L1191.54 65.98L1209.58 136.06L1199.89 136.06L1195.47 117.82L1174.93 117.82L1170.51 136.06M1181.94 88.92L1176.85 109.95L1193.55 109.95L1188.56 89.02Q1187.12 83.26 1186.26 79.23Q1185.39 75.20 1185.20 73.76Q1185.01 75.20 1184.14 79.23Q1183.28 83.26 1181.94 88.92" fill="url(#paint2_linear_0_1)"/>
<g id="Group 1">
<rect id="Rectangle 1" x="26" y="168" width="12" height="184" rx="5" fill="url(#paint3_linear_0_1)" fill-opacity="0.9"/>
</g>
<g id="Group 1_2">
<rect id="Rectangle 2" x="26" y="38" width="12" height="119" rx="5" fill="url(#paint4_linear_0_1)" fill-opacity="0.9"/>
</g>
<ellipse id="Ellipse 1" cx="148.5" cy="573" rx="215.5" ry="214" fill="url(#paint5_linear_0_1)" fill-opacity="0.4"/>
<rect id="Rectangle 3" x="1229" y="48" width="300" height="300" rx="25" fill="#FFFBFB" fill-opacity="0.9"/>
<g id="placeholder-logo"><g transform="translate(1229,48) translate(0.0,60.0) scale(1.2000)"><g fill="#666666">
  <path d="m88.05,27.65c-3.15,4 -3.2,51.2 -0.05,54.35c2.75,2.75 71.7,3.15 74.45,0.45c2.85,-2.9 2.3,-53.85 -0.65,-55.9c-1.95,-1.35 -7.15,-1.55 -36.95,-1.55l-34.7,0l-2.1,2.65zm69.45,3.35c0.65,0 1,8.6 1,23.75l0,23.75l-33,0l-33,0l-0.25,-23c-0.15,-12.6 -0.1,-23.45 0.15,-24.1c0.35,-0.85 8.9,-1.05 32.25,-0.75c17.55,0.2 32.3,0.35 32.85,0.35z"/>
  <path d="m99.15,37.3c-6.85,7.35 4.25,17.35 11.4,10.25c1.35,-1.35 2.45,-3.65 2.45,-5.05c0,-6.45 -9.35,-9.95 -13.85,-5.2z"/>
  <path d="m135,42.5c-0.7,0.85 -5.25,5.15 -10.1,9.6l-8.85,8.1l-3.2,-3.2l-3.15,-3.15l-6.35,6.3c-5.55,5.5 -6.35,6.75 -6.35,10.05l0,3.8l28.5,0l28.5,0l0,-8.6l0,-8.55l-8.15,-7.7c-9.35,-8.85 -9.15,-8.7 -10.85,-6.65zm7.25,15.2c0.95,0.9 1.75,2.9 1.75,4.45c6.35,-5.05 4.75,-7.15 4.9,-11.55c0.95,0 0,0 0,0l-6.65,7.1z"/>
  <path d="m53.65,110.75c0.1,4.8 0.45,8.65 0.75,8.5c0.35,-0.15 1.3,-0.25 2.1,-0.25c1.1,0 1.5,-1.2 1.5,-4.75l0,-4.75l3.25,5c4.9,7.5 6.2,6.75 6.55,-3.75c0.25,-8.15 0.15,-8.75 -1.7,-8.75c-1.65,0 -2.05,0.8 -2.3,4.75l-0.3,4.75l-2.8,-4.75c-4.85,-8.25 -7.25,-6.9 -7.05,4z"/>
  <path d="m91,108.9c0,9.65 0.3,10.1 6.1,10.1c5.8,0 7.15,-2.65 1.65,-3.2l-3.25,-0.3l-0.3,-6.75c-0.25,-5.95 -0.55,-6.75 -2.25,-6.75c-1.75,0 -1.95,0.7 -1.95,6.9z"/>
  <path d="m151,102.45c0,0.25 1,2.15 2.25,4.2c1.2,2.1 2.45,5.8 2.75,8.25c0.65,5.9 4,6.95 4,1.25c0.05,-2.1 1.25,-5.85 2.95,-8.9l2.9,-5.25l-2.5,0c-1.8,0 -2.8,0.85 -3.75,3.1l-1.3,3.05l-1.25,-3.05c-1.1,-2.6 -6.05,-4.8 -6.05,-2.65z"/>
  <path d="m191,107.45c0,9.05 3.4,8.85 4.25,-0.2c0.45,-5 0.35,-5.25 -1.9,-5.25c-2.2,0 -2.35,0.4 -2.35,5.45z"/>
  <path d="m180.8,104.75c-1.3,5.35 0.65,13.6 3.45,14.35c2.3,0.6 2.75,0.4 2.75,-1.2c0,-1.05 -0.45,-1.9 -1,-1.9c-0.55,0 -1,-1.6 -1,-3.5c0,-1.95 0.45,-3.5 1,-3.5c0.55,0 1,-0.7 1,-1.5c0,-0.85 -0.45,-1.5 -1,-1.5c-0.55,0 -1,-0.7 -1,-1.5c0,-2.1 -3.65,-1.9 -4.2,0.25z"/>
  <path d="m71.55,106.55c-2.2,2.25 -2.05,9.7 0.3,11.8c4.5,4.1 10.15,0.75 10.15,-6.1c0,-4.85 -2,-7.25 -6,-7.25c-1.55,0 -3.55,0.7 -4.45,1.55zm6.25,5.8c0.25,3.05 0,3.65 -1.6,3.65c-2.3,0 -3.25,-2.65 -2.05,-5.85c1.25,-3.35 3.3,-2.1 3.65,2.2z"/>
  <path d="m105.75,106.1c-2.5,1.45 -2.45,9.95 0.1,12.25c4.3,3.9 10.15,0.35 10.15,-6.2c0,-6 -5.15,-9.05 -10.25,-6.05zm6.05,6.25c0.25,3.05 0,3.65 -1.6,3.65c-2.3,0 -3.25,-2.65 -2.05,-5.85c1.25,-3.35 3.3,-2.1 3.65,2.2z"/>
  <path d="m119.2,106.2c-3.8,3.8 -0.4,12.55 4.4,11.35c1.9,-0.45 2.45,-0.3 2.15,0.65c-0.25,0.7 -1.55,1.2 -2.85,1.1c-4.05,-0.3 -5.35,0.45 -3.85,2.25c0.85,1.05 2.6,1.45 5.35,1.25l4.1,-0.3l0.3,-8.75l0.3,-8.75l-4.35,0c-2.4,0 -4.9,0.55 -5.55,1.2zm6.6,4.45c0.4,2.85 -2.15,4.85 -3.75,2.95c-0.9,-1.1 -0.9,-2 -0.05,-3.6c1.35,-2.5 3.4,-2.15 3.8,0.65z"/>
  <path d="m133.55,106.55c-2.2,2.25 -2.05,9.7 0.3,11.8c4.5,4.1 10.15,0.75 10.15,-6.1c0,-4.85 -2,-7.25 -6,-7.25c-1.55,0 -3.55,0.7 -4.45,1.55zm6.25,5.8c0.25,3.05 0,3.65 -1.6,3.65c-2.3,0 -3.25,-2.65 -2.05,-5.85c1.25,-3.35 3.3,-2.1 3.65,2.2z"/>
  <path d="m167.65,106.85c-3.9,4.3 -0.75,13.15 4.7,13.15c2.4,0 5.65,-2.75 5.65,-4.85c0,-1.4 -2.65,-1.55 -3.5,-0.15c-0.95,1.55 -4.5,1.15 -4.5,-0.5c0,-1.1 1.1,-1.5 4,-1.5c3.15,0 4,-0.35 4,-1.8c0,-5.3 -6.85,-8.25 -10.35,-4.35z"/>
  <path d="m191,117.5c0,2.15 0.4,2.6 2.25,2.3c1.5,-0.2 2.25,-1 2.25,-2.3c0,-1.3 -0.75,-2.1 -2.25,-2.3c-1.85,-0.3 -2.25,0.15 -2.25,2.3z"/>
 </g></g></g>
</g>
<defs>
<linearGradient id="paint0_linear_0_1" x1="0" y1="198" x2="1584" y2="198" gradientUnits="userSpaceOnUse">
<stop stop-color="#3D052C"/>
<stop offset="1"/>
</linearGradient>
<linearGradient id="paint1_linear_0_1" x1="323" y1="-224" x2="323" y2="352" gradientUnits="userSpaceOnUse">
<stop stop-color="#28F6F2" stop-opacity="0.4"/>
<stop offset="1" stop-color="#17908E" stop-opacity="0.7"/>
</linearGradient>
<linearGradient id="paint2_linear_0_1" x1="148.5" y1="38" x2="148.5" y2="140" gradientUnits="userSpaceOnUse">
<stop stop-color="white"/>
<stop offset="1" stop-color="#999999"/>
</linearGradient>
<linearGradient id="paint3_linear_0_1" x1="38" y1="260" x2="26" y2="260" gradientUnits="userSpaceOnUse">
<stop stop-color="#D9D9D9"/>
<stop offset="1" stop-color="#737373"/>
</linearGradient>
<linearGradient id="paint4_linear_0_1" x1="38" y1="97.5" x2="26" y2="97.5" gradientUnits="userSpaceOnUse">
<stop stop-color="#D9D9D9"/>
<stop offset="1" stop-color="#737373"/>
</linearGradient>
<linearGradient id="paint5_linear_0_1" x1="27.5" y1="434.5" x2="148.5" y2="787" gradientUnits="userSpaceOnUse">
<stop stop-color="#2E21BC"/>
<stop offset="1" stop-color="#150F56"/>
</linearGradient>
<clipPath id="clip0_0_1">
<rect width="1584" height="396" fill="white"/>
</clipPath>
</defs>
</svg>
